# xmcd CD database file
# Generated: Sun Dec 2 11:56:23 2001 by KSCD
# 
# Track frame offsets:
#       150
#       15946
#       30407
#       51439
#       70181
#
# Disc length: 1299 seconds
#
# Revision: 3
# Processed by: cddbd v1.4PL0 Copyright (c) Steve Scherf et al.
# Submitted via: Kscd 1.3.2
#
DISCID=34051105
DTITLE=The W.T. - Songs Out of Season
DYEAR=1900
DGENRE=
TTITLE0=Roswell
TTITLE1=At My Weakest
TTITLE2=Never Be
TTITLE3=Toward Night
TTITLE4=Grille
EXTD=
EXTT0=
EXTT1=
EXTT2=
EXTT3=
EXTT4=
PLAYORDER=
